<svg width="40" height="39" viewBox="0 0 40 39" fill="none" xmlns="http://www.w3.org/2000/svg">
<path d="M20.1674 38.963H20.0813C9.31336 38.963 0.552734 30.2428 0.552734 19.5244V19.4387C0.552734 8.7203 9.31336 0 20.0813 0H20.1674C30.9353 0 39.6959 8.7203 39.6959 19.4387V19.5244C39.6959 30.2428 30.9353 38.963 20.1674 38.963ZM20.0813 1.31886C10.0434 1.31886 1.87769 9.44699 1.87769 19.4387V19.5244C1.87769 29.5161 10.0434 37.6442 20.0813 37.6442H20.1674C30.2053 37.6442 38.371 29.5161 38.371 19.5244V19.4387C38.371 9.44699 30.2053 1.31886 20.1674 1.31886H20.0813Z" fill="#2188F7"/>
<path d="M31.1672 12.6676C30.6491 13.1886 29.931 13.5117 29.1347 13.5117C29.0327 13.5117 28.9333 13.5064 28.8339 13.4958C29.6647 12.9999 30.306 12.2232 30.6253 11.2973C30.6253 11.2973 30.6266 11.2973 30.6266 11.296C30.6717 11.172 30.7088 11.0467 30.7379 10.9175C30.0807 11.6165 29.1824 12.0899 28.1741 12.2034C28.0191 12.2218 27.8614 12.2311 27.7038 12.2311C27.6534 12.2311 27.6044 12.2297 27.5567 12.2271C27.2162 11.871 26.8094 11.5756 26.3589 11.3593C25.8568 11.1153 25.295 10.9716 24.7027 10.9531C24.6537 10.9505 24.606 10.9491 24.5557 10.9491C24.0535 10.9491 23.5712 11.0375 23.126 11.201C23.0121 11.2419 22.9008 11.2881 22.7921 11.3408C21.3811 11.9989 20.4046 13.4273 20.4046 15.0811C20.4046 15.4201 20.4456 15.7511 20.5238 16.0663C20.0919 16.0491 19.6639 16.0083 19.2439 15.945C19.1088 15.9239 18.9749 15.9001 18.8411 15.8751C17.7705 15.6772 16.749 15.337 15.8003 14.8727C14.951 14.4599 14.1601 13.9495 13.4393 13.356C12.8338 12.8588 12.2799 12.3049 11.7844 11.6982C11.7632 11.6732 11.742 11.6455 11.7208 11.6204C11.6916 11.6639 11.6651 11.7088 11.6413 11.755C11.2955 12.3577 11.0994 13.054 11.0994 13.7979C11.0994 13.8203 11.0994 13.8453 11.1007 13.8678C11.1087 14.4243 11.2279 14.9545 11.4399 15.4372C11.53 15.6509 11.64 15.8527 11.7659 16.0452C12.1368 16.6136 12.643 17.0871 13.2419 17.4142C13.2697 17.4313 13.2962 17.4458 13.3253 17.459C13.2829 17.4669 13.2379 17.4748 13.1941 17.4788C13.0709 17.4946 12.9451 17.5025 12.8179 17.5025C12.1806 17.5025 11.5883 17.3047 11.1034 16.9671C11.1007 17.0027 11.1007 17.0383 11.1007 17.0752C11.1007 18.2556 11.5976 19.3199 12.3939 20.0703C13.014 20.6586 13.8156 21.0555 14.7059 21.1703C14.3853 21.2877 14.0395 21.3497 13.6778 21.3497C13.2869 21.3497 12.9133 21.2758 12.5714 21.14C13.0815 22.7898 14.6013 23.9992 16.4138 24.0546C15.3075 25.1994 13.752 25.9103 12.0322 25.9103C10.9629 25.9103 9.95727 25.6346 9.08545 25.1532C11.1802 26.9574 13.911 28.0468 16.8987 28.0468C23.501 28.0468 28.8525 22.7199 28.8525 16.1481C28.8525 15.7867 28.8366 15.428 28.8035 15.0745C29.8952 14.6459 30.7618 13.7675 31.1712 12.6676H31.1672Z" fill="#2188F7"/>
</svg>
