<svg width="40" height="39" viewBox="0 0 40 39" fill="none" xmlns="http://www.w3.org/2000/svg">
<path d="M20.3107 38.963H20.2246C9.45667 38.963 0.696045 30.2428 0.696045 19.5244V19.4387C0.696045 8.7203 9.45667 0 20.2246 0H20.3107C31.0786 0 39.8393 8.7203 39.8393 19.4387V19.5244C39.8393 30.2428 31.0786 38.963 20.3107 38.963ZM20.2246 1.31886C10.1867 1.31886 2.021 9.44699 2.021 19.4387V19.5244C2.021 29.5161 10.1867 37.6442 20.2246 37.6442H20.3107C30.3486 37.6442 38.5143 29.5161 38.5143 19.5244V19.4387C38.5143 9.44699 30.3486 1.31886 20.3107 1.31886H20.2246Z" fill="#00E510"/>
<path d="M23.953 24.9871C19.1129 24.9871 15.1752 21.0661 15.1738 16.2483C15.1752 15.027 16.1742 14.0339 17.3984 14.0339C17.5243 14.0339 17.6488 14.0445 17.7681 14.0656C18.0304 14.1091 18.2795 14.1975 18.5088 14.3307C18.5419 14.3505 18.5644 14.3821 18.5697 14.419L19.0811 17.6278C19.0878 17.6648 19.0758 17.703 19.0507 17.7307C18.7684 18.0419 18.4081 18.2661 18.0066 18.3782L17.8131 18.4323L17.886 18.6183C18.5458 20.2906 19.8894 21.6266 21.5707 22.286L21.7576 22.3599L21.8119 22.1673C21.9245 21.7677 22.1497 21.409 22.4624 21.1281C22.4849 21.107 22.5154 21.0964 22.5459 21.0964C22.5525 21.0964 22.5591 21.0964 22.5671 21.0977L25.7907 21.6068C25.8291 21.6134 25.8609 21.6345 25.8808 21.6675C26.0133 21.8957 26.1021 22.1449 26.1471 22.406C26.1683 22.5221 26.1776 22.6448 26.1776 22.7727C26.1776 23.9926 25.1799 24.9857 23.953 24.9871Z" fill="#00E510"/>
<path d="M32.5361 18.4245C32.2751 15.4887 30.9236 12.7653 28.7308 10.7566C26.5248 8.73615 23.6628 7.62305 20.6698 7.62305C14.1006 7.62305 8.75575 12.9433 8.75575 19.4822C8.75575 21.6768 9.36389 23.8147 10.5153 25.6769L7.94751 31.3348L16.1689 30.463C17.5985 31.046 19.1116 31.3414 20.6684 31.3414C21.0778 31.3414 21.4979 31.3203 21.9192 31.2768C22.2902 31.2372 22.6652 31.1792 23.0335 31.1053C28.5347 29.9988 32.5507 25.1388 32.5825 19.5455V19.4822C32.5825 19.1261 32.5666 18.77 32.5348 18.4258L32.5361 18.4245ZM16.4855 27.9796L11.937 28.4623L13.2951 25.4672L13.0234 25.1045C13.0036 25.0781 12.9837 25.0518 12.9612 25.0214C11.7819 23.4005 11.1592 21.4856 11.1592 19.4835C11.1592 14.2635 15.4256 10.0168 20.6698 10.0168C25.5827 10.0168 29.747 13.8322 30.1485 18.7028C30.1697 18.9639 30.1816 19.2264 30.1816 19.4849C30.1816 19.5587 30.1803 19.6312 30.179 19.7091C30.0783 24.0758 27.0137 27.7844 22.7261 28.7287C22.3988 28.8013 22.0636 28.8567 21.7297 28.8923C21.3826 28.9319 21.0262 28.9516 20.6724 28.9516C19.4124 28.9516 18.1881 28.709 17.0314 28.2289C16.9029 28.1775 16.777 28.1221 16.6591 28.0654L16.4869 27.9823L16.4855 27.9796Z" fill="#00E510"/>
</svg>
