<svg width="40" height="39" viewBox="0 0 40 39" fill="none" xmlns="http://www.w3.org/2000/svg">
<path d="M20.0243 38.963H19.9382C9.17029 38.963 0.409668 30.2428 0.409668 19.5244V19.4387C0.409668 8.7203 9.17029 0 19.9382 0H20.0243C30.7923 0 39.5529 8.7203 39.5529 19.4387V19.5244C39.5529 30.2428 30.7923 38.963 20.0243 38.963ZM19.9382 1.31886C9.90034 1.31886 1.73463 9.44699 1.73463 19.4387V19.5244C1.73463 29.5161 9.90034 37.6442 19.9382 37.6442H20.0243C30.0622 37.6442 38.2279 29.5161 38.2279 19.5244V19.4387C38.2279 9.44699 30.0622 1.31886 20.0243 1.31886H19.9382Z" fill="url(#paint0_linear_84_235)"/>
<path d="M25.833 8.31799H14.131C10.8981 8.31799 8.26807 10.9359 8.26807 14.1539V24.8103C8.26807 28.0283 10.8981 30.6463 14.131 30.6463H25.833C29.0659 30.6463 31.696 28.0283 31.696 24.8103V14.1539C31.696 10.9359 29.0659 8.31799 25.833 8.31799ZM10.3363 14.1539C10.3363 12.0715 12.0389 10.3767 14.131 10.3767H25.833C27.9251 10.3767 29.6277 12.0715 29.6277 14.1539V24.8103C29.6277 26.8928 27.9251 28.5875 25.833 28.5875H14.131C12.0389 28.5875 10.3363 26.8928 10.3363 24.8103V14.1539Z" fill="url(#paint1_linear_84_235)"/>
<path d="M19.9821 24.9091C22.9884 24.9091 25.4356 22.4745 25.4356 19.4807C25.4356 16.4868 22.9897 14.0522 19.9821 14.0522C16.9744 14.0522 14.5286 16.4868 14.5286 19.4807C14.5286 22.4745 16.9744 24.9091 19.9821 24.9091ZM19.9821 16.1123C21.849 16.1123 23.3674 17.6237 23.3674 19.482C23.3674 21.3403 21.849 22.8517 19.9821 22.8517C18.1152 22.8517 16.5968 21.3403 16.5968 19.482C16.5968 17.6237 18.1152 16.1123 19.9821 16.1123Z" fill="url(#paint2_linear_84_235)"/>
<path d="M25.9403 14.9294C26.7499 14.9294 27.4097 14.2739 27.4097 13.4668C27.4097 12.6596 26.7512 12.0042 25.9403 12.0042C25.1294 12.0042 24.4709 12.6596 24.4709 13.4668C24.4709 14.2739 25.1294 14.9294 25.9403 14.9294Z" fill="url(#paint3_linear_84_235)"/>
<defs>
<linearGradient id="paint0_linear_84_235" x1="6.13613" y1="33.2629" x2="33.6987" y2="5.57294" gradientUnits="userSpaceOnUse">
<stop stop-color="#FAAD4F"/>
<stop offset="0.35" stop-color="#DD2A7B"/>
<stop offset="0.62" stop-color="#9537B0"/>
<stop offset="1" stop-color="#515BD4"/>
</linearGradient>
<linearGradient id="paint1_linear_84_235" x1="10.2356" y1="29.1823" x2="29.6371" y2="9.69109" gradientUnits="userSpaceOnUse">
<stop stop-color="#FAAD4F"/>
<stop offset="0.35" stop-color="#DD2A7B"/>
<stop offset="0.62" stop-color="#9537B0"/>
<stop offset="1" stop-color="#515BD4"/>
</linearGradient>
<linearGradient id="paint2_linear_84_235" x1="16.1278" y1="23.3172" x2="23.7995" y2="15.61" gradientUnits="userSpaceOnUse">
<stop stop-color="#FAAD4F"/>
<stop offset="0.35" stop-color="#DD2A7B"/>
<stop offset="0.62" stop-color="#9537B0"/>
<stop offset="1" stop-color="#515BD4"/>
</linearGradient>
<linearGradient id="paint3_linear_84_235" x1="24.9016" y1="14.5007" x2="26.9695" y2="12.4232" gradientUnits="userSpaceOnUse">
<stop stop-color="#FAAD4F"/>
<stop offset="0.35" stop-color="#DD2A7B"/>
<stop offset="0.62" stop-color="#9537B0"/>
<stop offset="1" stop-color="#515BD4"/>
</linearGradient>
</defs>
</svg>
