<svg width="40" height="40" viewBox="0 0 40 40" fill="none" xmlns="http://www.w3.org/2000/svg">
<path d="M19.7034 39.2255C18.6448 39.2255 17.5822 39.1411 16.5474 38.9749C11.9776 38.243 7.78943 35.9046 4.75527 32.3912C1.688 28.8395 0 24.3013 0 19.6127C0 8.7981 8.83879 0 19.7048 0C30.5707 0 39.4095 8.7981 39.4095 19.6127C39.4095 24.3738 37.6738 28.9661 34.5231 32.5415C31.4015 36.084 27.1126 38.3907 22.4488 39.0382C21.5465 39.1635 20.6243 39.2268 19.7061 39.2268L19.7034 39.2255ZM19.7034 1.58131C9.71459 1.58131 1.58862 9.66987 1.58862 19.6114C1.58862 28.5137 7.98552 35.9996 16.8005 37.4121C18.5772 37.6969 20.4401 37.7167 22.2275 37.4688C31.1153 36.2357 37.8183 28.5586 37.8183 19.6114C37.8183 9.66987 29.6923 1.58131 19.7034 1.58131Z" fill="#1877F7"/>
<path d="M22.336 15.9028V20.0031H27.4318L26.6249 25.5265H22.336V38.2522C21.4761 38.3709 20.5964 38.4328 19.7033 38.4328C18.6725 38.4328 17.6602 38.3511 16.6745 38.1928V25.5265H11.9749V20.0031H16.6745V14.9862C16.6745 11.8737 19.2091 9.34937 22.3373 9.34937V9.35201C22.3466 9.35201 22.3546 9.34937 22.3638 9.34937H27.4331V14.1263H24.1207C23.1363 14.1263 22.3373 14.9215 22.3373 15.9014L22.336 15.9028Z" fill="#1877F7"/>
</svg>
