<svg width="40" height="39" viewBox="0 0 40 39" fill="none" xmlns="http://www.w3.org/2000/svg">
<path d="M20.3573 38.8562C9.59468 38.8562 0.839355 30.1412 0.839355 19.4281C0.839355 8.71501 9.59468 0 20.3573 0C31.1199 0 39.8752 8.71501 39.8752 19.4281C39.8752 30.1412 31.1199 38.8562 20.3573 38.8562ZM20.3573 1.31886C10.3261 1.31886 2.16431 9.44302 2.16431 19.4281C2.16431 29.4132 10.3261 37.5374 20.3573 37.5374C30.3886 37.5374 38.5503 29.4132 38.5503 19.4281C38.5503 9.44302 30.3886 1.31886 20.3573 1.31886Z" fill="#FF0209"/>
<path d="M32.2301 15.5388C32.0817 14.1131 31.7624 12.537 30.5872 11.7088C29.677 11.0665 28.4805 11.0428 27.3636 11.0441C25.0025 11.0454 22.6401 11.0481 20.279 11.0494C18.008 11.052 15.7371 11.0533 13.4661 11.056C12.5174 11.0573 11.5952 10.9834 10.7141 11.3923C9.9576 11.7431 9.36534 12.4104 9.00893 13.153C8.51472 14.1856 8.41138 15.3555 8.35175 16.4976C8.24178 18.5774 8.25371 20.6625 8.38488 22.7411C8.4816 24.2578 8.72671 25.934 9.9046 26.9007C10.9487 27.7567 12.422 27.7989 13.7761 27.8002C18.0743 27.8042 22.3738 27.8081 26.6733 27.8108C27.2245 27.8121 27.7995 27.8015 28.3613 27.7409C29.4663 27.6222 30.5196 27.307 31.2298 26.4919C31.9466 25.6703 32.1308 24.5268 32.2394 23.444C32.5044 20.8169 32.5018 18.1646 32.2301 15.5388ZM17.7934 23.1104V15.7445L24.2009 19.4268L17.7934 23.1104Z" fill="#FF0209"/>
</svg>
