<svg width="39" height="39" viewBox="0 0 39 39" fill="none" xmlns="http://www.w3.org/2000/svg">
<path d="M19.5429 38.8205H19.4571C8.72857 38.8205 0 30.1321 0 19.453V19.3676C0 8.68841 8.72857 0 19.4571 0H19.5429C30.2714 0 39 8.68841 39 19.3676V19.453C39 30.1321 30.2714 38.8205 19.5429 38.8205ZM19.4571 1.31403C9.45595 1.31403 1.32011 9.41244 1.32011 19.3676V19.453C1.32011 29.4081 9.45595 37.5065 19.4571 37.5065H19.5429C29.5441 37.5065 37.6799 29.4081 37.6799 19.453V19.3676C37.6799 9.41244 29.5441 1.31403 19.5429 1.31403H19.4571Z" fill="white"/>
<path d="M18.0419 20.1151C17.7145 19.7065 17.3396 19.3937 16.9198 19.1822C17.2908 18.9575 17.6103 18.6815 17.8743 18.353C18.3192 17.7985 18.5449 17.1034 18.5449 16.286C18.5449 15.604 18.364 14.9773 18.0063 14.4241C17.6499 13.8708 17.1192 13.4267 16.4288 13.1034C15.7529 12.7868 14.9384 12.6265 14.0103 12.6265H8.7312V26.1965H14.2532C15.1575 26.1965 15.9654 26.0322 16.6532 25.709C17.3542 25.3805 17.9007 24.9206 18.2756 24.3437C18.6518 23.7642 18.8432 23.1059 18.8432 22.3871C18.8432 21.5448 18.5739 20.7814 18.0419 20.1165V20.1151ZM15.238 17.6421C14.912 17.9049 14.4354 18.039 13.8242 18.039H11.5404V15.0325H13.8242C14.4328 15.0325 14.9067 15.1704 15.2327 15.4437C15.5456 15.7052 15.6974 16.0666 15.6974 16.5449C15.6974 17.0232 15.5469 17.3938 15.238 17.6421ZM11.5404 20.4463H13.9918C14.6334 20.4463 15.1271 20.6013 15.5007 20.9206C15.8585 21.2268 16.0327 21.6329 16.0327 22.1637C16.0327 22.6946 15.8717 23.0691 15.539 23.349C15.1945 23.6394 14.6994 23.7865 14.0658 23.7865H11.5404V20.4463Z" fill="white"/>
<path d="M29.6287 17.8461C29.2036 17.0813 28.6016 16.4782 27.8386 16.055C27.0769 15.6319 26.1964 15.4177 25.2248 15.4177C24.2532 15.4177 23.3067 15.6385 22.5265 16.0734C21.745 16.5097 21.1298 17.1365 20.6994 17.9393C20.2691 18.7409 20.0513 19.6818 20.0513 20.7356C20.0513 21.7895 20.2757 22.7316 20.7192 23.5319C21.1628 24.3334 21.7833 24.9642 22.5648 25.4057C23.3449 25.8472 24.24 26.0706 25.2261 26.0706C26.4366 26.0706 27.465 25.7644 28.2835 25.1613C29.1019 24.5581 29.6749 23.7723 29.9877 22.8275L30.0102 22.7605H27.6155L27.601 22.7895C27.1403 23.7185 26.3416 24.1889 25.2248 24.1889C24.4472 24.1889 23.7819 23.9432 23.2473 23.4609C22.7258 22.9892 22.4261 22.3584 22.3562 21.5845H30.1871L30.1937 21.5411C30.2438 21.2297 30.2689 20.8775 30.2689 20.4951C30.2689 19.5017 30.0537 18.6108 29.6287 17.8461ZM23.2842 17.9827C23.7938 17.5294 24.4156 17.3007 25.1311 17.3007C25.9218 17.3007 26.5937 17.5333 27.1284 17.9932C27.6485 18.44 27.9244 19.0405 27.9482 19.7764H22.3786C22.4842 19.0287 22.7892 18.4256 23.2855 17.984L23.2842 17.9827Z" fill="white"/>
<path d="M27.767 12.938H22.5513V14.1679H27.767V12.938Z" fill="white"/>
</svg>
